/* XPM */
static char * tux_64x64_alpha_xpm[] = {
"64 64 718 2",
"  	c None",
". 	c #141414",
"+ 	c #070707",
"@ 	c #000000",
"# 	c #090909",
"$ 	c #151515",
"% 	c #020202",
"& 	c #1A1A1A",
"* 	c #0A0A0A",
"= 	c #131314",
"- 	c #343435",
"; 	c #0C0C0C",
"> 	c #2A2A2B",
", 	c #747474",
"' 	c #434344",
") 	c #030303",
"! 	c #202020",
"~ 	c #040404",
"{ 	c #2C2C2C",
"] 	c #474747",
"^ 	c #1B1B1B",
"/ 	c #050505",
"( 	c #010101",
"_ 	c #1C1C1C",
": 	c #080808",
"< 	c #282828",
"[ 	c #1B1B1C",
"} 	c #14100C",
"| 	c #292319",
"1 	c #100C05",
"2 	c #4F4028",
"3 	c #62533C",
"4 	c #393023",
"5 	c #181818",
"6 	c #342918",
"7 	c #CB9A4E",
"8 	c #D5A150",
"9 	c #554123",
"0 	c #2A1F0D",
"a 	c #C08F43",
"b 	c #D9A552",
"c 	c #E1AC5A",
"d 	c #D19E4D",
"e 	c #1D150A",
"f 	c #131313",
"g 	c #9B7740",
"h 	c #EAB86B",
"i 	c #F1C071",
"j 	c #E8B668",
"k 	c #16110A",
"l 	c #B38946",
"m 	c #F6C26F",
"n 	c #D5AA65",
"o 	c #D0A664",
"p 	c #EDB966",
"q 	c #81612E",
"r 	c #0E0E0E",
"s 	c #1D1D1D",
"t 	c #BB955B",
"u 	c #191612",
"v 	c #4D4B47",
"w 	c #DAAF6A",
"x 	c #5F4B2C",
"y 	c #040403",
"z 	c #E4B05E",
"A 	c #B8935A",
"B 	c #050404",
"C 	c #4C4C4C",
"D 	c #A68755",
"E 	c #E8B666",
"F 	c #0C0904",
"G 	c #0B0B0B",
"H 	c #9E8051",
"I 	c #525253",
"J 	c #8F744B",
"K 	c #725A35",
"L 	c #121213",
"M 	c #D5A55A",
"N 	c #645235",
"O 	c #0D0D0D",
"P 	c #4A3D28",
"Q 	c #FAC573",
"R 	c #2B2111",
"S 	c #A2804B",
"T 	c #12100D",
"U 	c #7C6533",
"V 	c #BC971C",
"W 	c #A68805",
"X 	c #927906",
"Y 	c #BB9831",
"Z 	c #5E4E2C",
"` 	c #57462D",
" .	c #F9C472",
"..	c #151008",
"+.	c #594527",
"@.	c #9B7E50",
"#.	c #614604",
"$.	c #D09D09",
"%.	c #E4B309",
"&.	c #E6C30A",
"*.	c #D1B30E",
"=.	c #D2B315",
"-.	c #D4B60D",
";.	c #827106",
">.	c #54481D",
",.	c #E4B56C",
"'.	c #B18C51",
").	c #0B0802",
"!.	c #C4932A",
"~.	c #DCA30A",
"{.	c #F1BB0A",
"].	c #EFBF0A",
"^.	c #ECCB0B",
"/.	c #E6CC1C",
"(.	c #E7CA34",
"_.	c #E2C726",
":.	c #DDC40B",
"<.	c #DABF0B",
"[.	c #E0BB2A",
"}.	c #44370D",
"|.	c #6E4C04",
"1.	c #C98D07",
"2.	c #E8AF0A",
"3.	c #F0BB09",
"4.	c #EEC40B",
"5.	c #EBCC0F",
"6.	c #E3C930",
"7.	c #E3C737",
"8.	c #E0C815",
"9.	c #DFC70C",
"0.	c #DEC60A",
"a.	c #CDB10C",
"b.	c #CAA311",
"c.	c #0A0700",
"d.	c #010100",
"e.	c #996A05",
"f.	c #D39707",
"g.	c #E7AE08",
"h.	c #EFBC08",
"i.	c #EFC90A",
"j.	c #E7CA1C",
"k.	c #E3C834",
"l.	c #E0C713",
"m.	c #DFC70B",
"n.	c #D6BC0A",
"o.	c #C39E04",
"p.	c #CA9604",
"q.	c #CA9307",
"r.	c #080600",
"s.	c #392803",
"t.	c #A97902",
"u.	c #E3AC07",
"v.	c #F0C00C",
"w.	c #EFCE1B",
"x.	c #E2C81A",
"y.	c #DEC50E",
"z.	c #CFB508",
"A.	c #BB9604",
"B.	c #BC8900",
"C.	c #D09700",
"D.	c #CD9406",
"E.	c #86600F",
"F.	c #1F1F1F",
"G.	c #48371C",
"H.	c #9C7120",
"I.	c #9C7003",
"J.	c #C29E09",
"K.	c #C6A60D",
"L.	c #BA9807",
"M.	c #B68A02",
"N.	c #BD8500",
"O.	c #C98D01",
"P.	c #C38A04",
"Q.	c #BD8A1A",
"R.	c #CC9B43",
"S.	c #D6A353",
"T.	c #1E180E",
"U.	c #3C3C3C",
"V.	c #565657",
"W.	c #684F28",
"X.	c #D5A353",
"Y.	c #9E7120",
"Z.	c #A77505",
"`.	c #CA9706",
" +	c #CE9205",
".+	c #CD8D06",
"++	c #C28405",
"@+	c #BD830F",
"#+	c #C3923A",
"$+	c #DBA856",
"%+	c #E8B361",
"&+	c #E4AF5D",
"*+	c #7D6134",
"=+	c #09090A",
"-+	c #5B5B5C",
";+	c #1A1A1B",
">+	c #1E1E1E",
",+	c #74582D",
"'+	c #E3AE5C",
")+	c #D3A151",
"!+	c #9E7223",
"~+	c #9B690C",
"{+	c #A06C0A",
"]+	c #9F6B0C",
"^+	c #AD7A21",
"/+	c #CE9B47",
"(+	c #DFAB58",
"_+	c #EEB967",
":+	c #FDC976",
"<+	c #FCC875",
"[+	c #DEAD5F",
"}+	c #0C0A07",
"|+	c #8D6E3E",
"1+	c #F1BD6A",
"2+	c #E1AD5B",
"3+	c #DBA755",
"4+	c #CC9A4C",
"5+	c #CA9848",
"6+	c #D4A150",
"7+	c #DEA955",
"8+	c #E3AE5B",
"9+	c #F3BE6C",
"0+	c #FECA77",
"a+	c #644F2E",
"b+	c #17120A",
"c+	c #EBBA6C",
"d+	c #DEA957",
"e+	c #DDA856",
"f+	c #DFAA58",
"g+	c #E8B461",
"h+	c #F8C471",
"i+	c #D3A864",
"j+	c #171717",
"k+	c #020201",
"l+	c #B99254",
"m+	c #EFBA68",
"n+	c #E5B05D",
"o+	c #E6B25F",
"p+	c #FDC876",
"q+	c #423521",
"r+	c #212121",
"s+	c #5C4828",
"t+	c #A3824E",
"u+	c #080603",
"v+	c #D4A65D",
"w+	c #F3C173",
"x+	c #090806",
"y+	c #101010",
"z+	c #45341A",
"A+	c #E9B462",
"B+	c #FBC774",
"C+	c #4B3C25",
"D+	c #82622F",
"E+	c #D8A350",
"F+	c #EDB866",
"G+	c #FAC673",
"H+	c #F9C572",
"I+	c #F2BD6B",
"J+	c #E9B562",
"K+	c #E6B15F",
"L+	c #E4B05D",
"M+	c #EBB664",
"N+	c #B99358",
"O+	c #050402",
"P+	c #BF9046",
"Q+	c #F4BF6D",
"R+	c #ECB865",
"S+	c #E5B05E",
"T+	c #E2AD5B",
"U+	c #F1BD6B",
"V+	c #392E1D",
"W+	c #191919",
"X+	c #423219",
"Y+	c #EBB764",
"Z+	c #EFBB68",
"`+	c #B79054",
" @	c #101011",
".@	c #BA9150",
"+@	c #FEC977",
"@@	c #ECB765",
"#@	c #504027",
"$@	c #070708",
"%@	c #111111",
"&@	c #161616",
"*@	c #060606",
"=@	c #3C301C",
"-@	c #FFCA78",
";@	c #F7C370",
">@	c #C89F5E",
",@	c #232325",
"'@	c #AC8952",
")@	c #1F1910",
"!@	c #292114",
"~@	c #FCC877",
"{@	c #534228",
"]@	c #8E7144",
"^@	c #80663E",
"/@	c #E3B46C",
"(@	c #A3814E",
"_@	c #2C2316",
":@	c #B69157",
"<@	c #1E1E1F",
"[@	c #6F5936",
"}@	c #F4C06D",
"|@	c #BC9659",
"1@	c #937546",
"2@	c #FBC674",
"3@	c #C89F60",
"4@	c #CAA060",
"5@	c #A78550",
"6@	c #C79E5F",
"7@	c #3E3E3E",
"8@	c #2E2E2E",
"9@	c #292929",
"0@	c #1D1C1B",
"a@	c #6E5004",
"b@	c #C6960B",
"c@	c #7F5F07",
"d@	c #070500",
"e@	c #A07F4C",
"f@	c #A1804D",
"g@	c #414141",
"h@	c #494949",
"i@	c #D6A335",
"j@	c #EAB30E",
"k@	c #F1BD10",
"l@	c #F0BC0E",
"m@	c #A47A07",
"n@	c #A1804A",
"o@	c #F2C258",
"p@	c #EFC348",
"q@	c #977724",
"r@	c #161511",
"s@	c #383838",
"t@	c #D99B18",
"u@	c #E6AE0C",
"v@	c #EDBA0E",
"w@	c #EFBC0E",
"x@	c #F0BB0C",
"y@	c #E6B637",
"z@	c #FCC775",
"A@	c #F6C36B",
"B@	c #E4B60E",
"C@	c #E2C60C",
"D@	c #B59B03",
"E@	c #7D6907",
"F@	c #E0C526",
"G@	c #D09725",
"H@	c #DA9A0B",
"I@	c #E4AC0A",
"J@	c #EAB70B",
"K@	c #EDBA0D",
"L@	c #EFBC0D",
"M@	c #F5C662",
"N@	c #F3C26C",
"O@	c #E1A80B",
"P@	c #E8BA09",
"Q@	c #B58D04",
"R@	c #443603",
"S@	c #E0C109",
"T@	c #E2C80C",
"U@	c #C79228",
"V@	c #D3940C",
"W@	c #E2A609",
"X@	c #E8B30A",
"Y@	c #EBB90C",
"Z@	c #EDB90E",
"`@	c #EDB90D",
" #	c #EEBA0A",
".#	c #E5BB22",
"+#	c #FAC875",
"@#	c #F5C06E",
"##	c #E1B25D",
"$#	c #DEA80E",
"%#	c #E7B009",
"&#	c #C78D06",
"*#	c #452E00",
"=#	c #3C2B01",
"-#	c #D09F06",
";#	c #ECBC07",
">#	c #F2BD09",
",#	c #D7A429",
"'#	c #D4A022",
")#	c #CB920F",
"!#	c #D4990B",
"~#	c #E1A509",
"{#	c #E9B109",
"]#	c #EDB70A",
"^#	c #EEB90D",
"/#	c #EEB90A",
"(#	c #E9BB08",
"_#	c #E3B942",
":#	c #D9AA57",
"<#	c #DAA10C",
"[#	c #E5AB08",
"}#	c #CC9103",
"|#	c #AB7401",
"1#	c #754E01",
"2#	c #4C3301",
"3#	c #4E3501",
"4#	c #795402",
"5#	c #BE8704",
"6#	c #E4AB08",
"7#	c #EFB809",
"8#	c #F1BA0B",
"9#	c #F3CA42",
"0#	c #D59C0F",
"a#	c #E4AA0B",
"b#	c #E7AE0A",
"c#	c #E9B009",
"d#	c #E8AF08",
"e#	c #EBB409",
"f#	c #ECB80A",
"g#	c #ECB90C",
"h#	c #EDBA0C",
"i#	c #EEB808",
"j#	c #E2B90D",
"k#	c #F1C368",
"l#	c #E3AF5C",
"m#	c #D7A759",
"n#	c #D39A0D",
"o#	c #E4AA06",
"p#	c #D79C03",
"q#	c #C48801",
"r#	c #BC8102",
"s#	c #B87E04",
"t#	c #BA8105",
"u#	c #CA9007",
"v#	c #E1A809",
"w#	c #EAB209",
"x#	c #EDB609",
"y#	c #EEBA0D",
"z#	c #F0C01C",
"A#	c #D2A135",
"B#	c #E3A90C",
"C#	c #EAB40A",
"D#	c #EDB60A",
"E#	c #EDB608",
"F#	c #ECB508",
"G#	c #EBB508",
"H#	c #EBB609",
"I#	c #ECB80B",
"J#	c #EDBC07",
"K#	c #DFB629",
"L#	c #FCC978",
"M#	c #CFA257",
"N#	c #BE8A0A",
"O#	c #E0A605",
"P#	c #E0A603",
"Q#	c #D79C02",
"R#	c #D29703",
"S#	c #D19704",
"T#	c #D89E07",
"U#	c #E3AA08",
"V#	c #ECB409",
"W#	c #ECB509",
"X#	c #ECB609",
"Y#	c #EDB80B",
"Z#	c #EFBA0E",
"`#	c #F1C327",
" $	c #D7A538",
".$	c #E0A60C",
"+$	c #ECB40B",
"@$	c #ECB70A",
"#$	c #ECB90B",
"$$	c #EBB70A",
"%$	c #ECB80C",
"&$	c #EEBA0C",
"*$	c #EEB809",
"=$	c #E8BD09",
"-$	c #E8BD52",
";$	c #A98342",
">$	c #B58007",
",$	c #DBA105",
"'$	c #E6AC04",
")$	c #E5AB05",
"!$	c #E5AC08",
"~$	c #E5AC09",
"{$	c #E8AF09",
"]$	c #EBB208",
"^$	c #ECB408",
"/$	c #ECB60A",
"($	c #EEBC0F",
"_$	c #F1C325",
":$	c #D99E0D",
"<$	c #EAB20C",
"[$	c #EBB70B",
"}$	c #EBB80B",
"|$	c #EBB60A",
"1$	c #ECB70B",
"2$	c #EBB80C",
"3$	c #EDBB08",
"4$	c #E0B815",
"5$	c #F6C56F",
"6$	c #A4824B",
"7$	c #352505",
"8$	c #BB8206",
"9$	c #D9A005",
"0$	c #EAB106",
"a$	c #EBB307",
"b$	c #EEB70B",
"c$	c #EEB80C",
"d$	c #EEB50A",
"e$	c #EEBB0E",
"f$	c #F0C01A",
"g$	c #D5970F",
"h$	c #E8B00C",
"i$	c #EAB80B",
"j$	c #EAB80C",
"k$	c #EABE07",
"l$	c #E2B731",
"m$	c #9B7D4C",
"n$	c #050403",
"o$	c #392702",
"p$	c #BE8605",
"q$	c #DDA405",
"r$	c #EBB206",
"s$	c #EBB608",
"t$	c #EDB90C",
"u$	c #EEB80B",
"v$	c #EEB80A",
"w$	c #ECBA0D",
"x$	c #EBB90D",
"y$	c #F0BC0F",
"z$	c #F0BD10",
"A$	c #D6970F",
"B$	c #E7AE0C",
"C$	c #ECB70C",
"D$	c #E9B707",
"E$	c #E1B807",
"F$	c #EABB59",
"G$	c #EABB71",
"H$	c #59482E",
"I$	c #4B3202",
"J$	c #C48B05",
"K$	c #E0A705",
"L$	c #EDBB1F",
"M$	c #D99A0D",
"N$	c #E9B00A",
"O$	c #EAB408",
"P$	c #EBB509",
"Q$	c #ECB90D",
"R$	c #EAB508",
"S$	c #E9B307",
"T$	c #DFB206",
"U$	c #CC9C16",
"V$	c #EABA6C",
"W$	c #F7C575",
"X$	c #997C4D",
"Y$	c #15120D",
"Z$	c #5E4002",
"`$	c #C68D05",
" %	c #E9B106",
".%	c #EAB70A",
"+%	c #ECB60F",
"@%	c #E6B023",
"#%	c #D9A12A",
"$%	c #DA9C0A",
"%%	c #E6AC08",
"&%	c #E9B108",
"*%	c #E8AF07",
"=%	c #E9B207",
"-%	c #EBB80D",
";%	c #EAB207",
">%	c #DEA806",
",%	c #CE9607",
"'%	c #76520A",
")%	c #77603C",
"!%	c #C79F61",
"~%	c #ECBD73",
"{%	c #EFBF72",
"]%	c #EEBE72",
"^%	c #E9BB72",
"/%	c #CFA666",
"(%	c #A58653",
"_%	c #645134",
":%	c #16130E",
"<%	c #734D02",
"[%	c #C99005",
"}%	c #E8B005",
"|%	c #EAB609",
"1%	c #EBB60B",
"2%	c #EBB60C",
"3%	c #E9B30C",
"4%	c #E6B119",
"5%	c #E7B738",
"6%	c #D9A22C",
"7%	c #D5980A",
"8%	c #D99D08",
"9%	c #DEA406",
"0%	c #E2A806",
"a%	c #E5AC07",
"b%	c #E7AE07",
"c%	c #EBB209",
"d%	c #EDB60B",
"e%	c #EDB70C",
"f%	c #DEA606",
"g%	c #CB9207",
"h%	c #926103",
"i%	c #181000",
"j%	c #030200",
"k%	c #855902",
"l%	c #C98F05",
"m%	c #EAB307",
"n%	c #EBB50A",
"o%	c #EAB20A",
"p%	c #E6AC09",
"q%	c #E2A90C",
"r%	c #DBA61C",
"s%	c #E2B236",
"t%	c #BF8917",
"u%	c #BB8208",
"v%	c #C38807",
"w%	c #C98D06",
"x%	c #CF9306",
"y%	c #D49807",
"z%	c #D69B07",
"A%	c #DBA108",
"B%	c #E1A708",
"C%	c #E8B009",
"D%	c #EBB309",
"E%	c #EAB309",
"F%	c #E8B008",
"G%	c #D69D06",
"H%	c #BC8306",
"I%	c #8F5E03",
"J%	c #2F1F01",
"K%	c #060400",
"L%	c #805301",
"M%	c #BF8405",
"N%	c #D39905",
"O%	c #E3A905",
"P%	c #E9B006",
"Q%	c #E9B007",
"R%	c #E9B008",
"S%	c #E3A908",
"T%	c #DA9D08",
"U%	c #CA8F0B",
"V%	c #C28F26",
"W%	c #B08126",
"X%	c #B07F1D",
"Y%	c #AF7809",
"Z%	c #B37A06",
"`%	c #B77E07",
" &	c #BC8108",
".&	c #C08608",
"+&	c #C78E08",
"@&	c #D39908",
"#&	c #DFA507",
"$&	c #E1A807",
"%&	c #DEA507",
"&&	c #D39A07",
"*&	c #BE8506",
"=&	c #A46D05",
"-&	c #794E02",
";&	c #251801",
">&	c #6D4602",
",&	c #AE7404",
"'&	c #C38805",
")&	c #D19605",
"!&	c #DAA005",
"~&	c #DEA306",
"{&	c #DBA007",
"]&	c #D29707",
"^&	c #C78B07",
"/&	c #AE790D",
"(&	c #9E711D",
"_&	c #936614",
":&	c #90620B",
"<&	c #996706",
"[&	c #AA7206",
"}&	c #B67E06",
"|&	c #BF8607",
"1&	c #C28907",
"2&	c #BC8307",
"3&	c #B07807",
"4&	c #9F6905",
"5&	c #845402",
"6&	c #563701",
"7&	c #16130D",
"8&	c #2A2720",
"9&	c #5C3C02",
"0&	c #996304",
"a&	c #B07505",
"b&	c #BB8005",
"c&	c #C38905",
"d&	c #C68C05",
"e&	c #C18605",
"f&	c #B17805",
"g&	c #97680D",
"h&	c #7B591D",
"i&	c #7D5409",
"j&	c #8F5E04",
"k&	c #986506",
"l&	c #986507",
"m&	c #8E5D05",
"n&	c #7B4F02",
"o&	c #5A3A02",
"p&	c #604C28",
"q&	c #4D3710",
"r&	c #6E4602",
"s&	c #936004",
"t&	c #A56F04",
"u&	c #AB7304",
"v&	c #AA7205",
"w&	c #976505",
"x&	c #80570E",
"y&	c #694F21",
"z&	c #604410",
"A&	c #624006",
"B&	c #5E3E05",
"C&	c #5C4214",
"D&	c #513C16",
"E&	c #543703",
"F&	c #664303",
"G&	c #6C4703",
"H&	c #654308",
"I&	c #684C1E",
"                                                                                                                                ",
"                                                      . + @ @ @ @ @ # .                                                         ",
"                                                  $ @ @ @ @ @ @ @ @ @ @ % &                                                     ",
"                                                * @ @ @ @ @ @ @ @ @ = - ; @ &                                                   ",
"                                              . @ @ @ @ @ @ @ @ @ @ > , ' ) @ !                                                 ",
"                                              ~ @ @ @ @ @ @ @ @ @ @ { ] ^ ) @ /                                                 ",
"                                              @ @ @ @ @ @ @ @ @ @ @ ) ( @ @ @ @ &                                               ",
"                                            _ @ @ @ @ @ @ @ @ @ @ @ @ @ @ @ @ @ :                                               ",
"                                            < @ @ @ # @ @ @ @ @ @ @ ( [ % @ @ @ @                                               ",
"                                            < @ @ } | > / @ @ @ 1 2 3 4 < @ @ @ @ 5                                             ",
"                                            < @ 6 7 8 9 ; @ @ 0 a b c d e @ @ @ @ f                                             ",
"                                            < @ g h i j k @ @ l m n o p q @ @ @ @ r                                             ",
"                                            s @ t u v w x ~ y z A B C D E F @ @ @ G                                             ",
"                                              @ H @ I J K G L M N @ O P Q R @ @ @ O                                             ",
"                                              @ S T ~ U V W X Y Z @ @ `  ...@ @ @ G                                             ",
"                                              @ +.@.#.$.%.&.*.=.-.;.>.,.'.@ @ @ @ *                                             ",
"                                              @ ).!.~.{.].^./.(._.:.<.[.}.@ @ @ @ %                                             ",
"                                              @ |.1.2.3.4.5.6.7.8.9.0.a.b.c.@ @ @ @                                             ",
"                                              d.e.f.g.h.i.j.k.l.m.n.o.p.q.r.@ @ @ @                                             ",
"                                              ( s.t.u.v.w.x.y.z.A.B.C.D.E.@ ( F.% @ .                                           ",
"                                              ~ G.H.I.J.K.L.M.N.O.P.Q.R.S.T.@ U.V.# )                                           ",
"                                              G W.X.Y.Z.`. +.+++@+#+$+%+&+*+@ =+-+;+@ f                                         ",
"                                            >+@ ,+'+)+!+~+{+]+^+/+(+_+:+<+[+}+@ ( @ @ @                                         ",
"                                            ~ @ |+1+2+3+4+5+6+7+8+9+0+0+0+<+a+@ @ @ @ @ *                                       ",
"                                          O @ b+c+:+_+(+d+e+f+g+h+0+0+0+0+0+i+% @ @ @ @ @ ^                                     ",
"                                        j+@ k+l+0+0+:+m+n+o+1+p+0+0+0+0+0+0+0+q+@ @ @ @ @ /                                     ",
"                                      r+@ @ s+0+0+0+0+0+<+:+0+0+0+0+0+0+0+0+0+t+@ @ @ @ @ @ G                                   ",
"                                      ~ @ u+v+0+0+0+0+0+0+0+0+0+0+0+0+0+0+0+0+w+x+@ @ @ @ @ @ y+                                ",
"                                    O @ @ z+A+0+0+0+0+0+B+:+0+0+0+0+0+:+<+ .m :+C+@ @ @ @ @ @ @ &                               ",
"                                    @ @ @ D+E+F+G+0+0+H+1+h+0+0+0+:+I+J+K+L+'+M+N+@ ( ( @ @ @ @ (                               ",
"                                  ; @ @ O+P+g+H+0+0+0+0+B+0+0+0+0+0+:+Q Q+R+S+T+U+V+~ W+G @ @ @ @ y+                            ",
"                                  @ r ) X+Y+:+0+0+0+0+0+0+0+0+0+0+0+0+0+0+0+G+Z+K+`+( @  @y+@ @ @ @                             ",
"                                f @ F.@ .@+@0+0+0+0+0+0+0+0+0+0+0+0+0+0+0+0+0+0+9+@@#@@ @ L $@@ @ @ %@                          ",
"                                ) &@*@=@+@-@0+0+0+0+0+0+0+0+0+0+0+0+0+0+0+0+0+-@-@;@>@@ ,@^ j+@ @ @ @                           ",
"                              _ @ *@@ '@-@-@0+0+0+0+0+0+0+0+0+0+0+0+0+0+0+0+0+-@-@-@+@)@^ G ;  @@ @ @ ^                         ",
"                              O @ @ !@~@-@-@0+0+0+0+:+h+0+0+0+0+0+0+0+0+0+0+0+-@-@-@-@{@@ @ @ s @ @ @ y+                        ",
"                              @ @ @ ]@-@-@-@0+0+0+0+B+ .0+0+0+0+0+0+0+0+0+0+0+-@-@-@-@^@@ @ @ [ @ @ @ @                         ",
"                            &@@ @ ( /@-@-@-@0+0+0+0+h+H+0+0+0+0+0+0+0+0+0+0+0+-@-@-@-@(@@ @ @ >+@ @ @ @ s                       ",
"                            ( @ @ _@-@-@-@-@0+0+0+0+m H+0+0+0+0+0+0+0+0+0+0+0+-@-@-@-@:@@ @ @ <@@ @ @ @ .                       ",
"                          G @ @ @ [@-@-@-@-@0+0+0+0+}@Q 0+0+0+0+0+0+0+0+0+0+0+-@-@-@-@|@@ @ @ F.@ @ @ @ ;                       ",
"                        j+@ @ @ @ 1@-@-@-@-@0+0+0+0+}@2@0+0+0+0+0+0+0+0+0+0+0+-@-@-@-@3@@ @ ( ;+@ @ @ @ %                       ",
"                        _ @ @ @ @ t+-@-@-@-@0+0+0+0+}@B+0+0+0+0+0+0+0+0+0+0+0+-@-@-@-@4@@ @ f * @ @ @ @ %                       ",
"                        r+@ @ @ @ 5@-@-@-@-@0+0+0+0+}@<+0+0+0+0+0+0+0+0+0+0+0+-@-@-@-@6@@ ~ 7@8@9@; @ @ #                       ",
"                        0@a@b@c@d@e@-@-@-@-@0+0+0+0+}@<+0+0+0+0+0+0+0+0+0+0+0+-@-@-@-@f@G &@* O W+g@h@% f                       ",
"                        i@j@k@l@m@n@-@-@-@-@0+0+0+0+Q+<+0+0+0+0+0+0+0+0+0+0+0+-@-@o@p@q@r@@ @ @ @ @ s@* >+                      ",
"                        t@u@v@w@x@y@-@-@-@-@0+0+0+0+}@z@0+0+0+0+0+0+0+0+0+0+0+-@A@B@C@D@d.@ @ @ @ @ @ E@F@                      ",
"                      G@H@I@J@K@K@L@M@-@-@-@0+0+0+0+G+<+0+0+0+0+0+0+0+0+0+0+0+-@N@O@P@Q@d.@ @ @ @ @ R@S@T@                      ",
"                    U@V@W@X@Y@Z@`@ #.#+#-@-@0+0+0+0+0+0+0+0+0+0+0+0+0+0+0+0+0+@###$#%#&#*#@ @ @ @ =#-#;#>#                      ",
"              ,#'#)#!#~#{#]#^#`@v@/#(#_#-@-@0+0+0+0+0+0+0+0+0+0+0+0+0+0+0+0+:+&+:#<#[#}#|#1#2#3#4#5#6#7#8#9#                    ",
"            0#a#b#c#d#{#e#f#g#^#K@h#i#j#k#-@0+0+0+0+0+0+0+0+0+0+0+0+0+0+0+0+:+l#m#n#o#p#q#r#s#t#u#v#w#x#y#z#                    ",
"          A#B#C#D#E#F#G#H#I#I#`@K@K@/#J#K#L#0+0+0+0+0+0+0+0+0+0+0+0+0+0+0+0+0+K+M#N#O#P#Q#R#S#T#U#V#W#X#Y#Z#`#                  ",
"           $.$+$@$#$I#f#$$I#I#%$`@^#&$*$=$-$0+0+0+0+0+0+0+0+0+0+0+0+0+0+0+0+0+Y+;$>$,$'$)$!$~${$]$^$F#/$#$&$($_$                ",
"            :$<$[$}$$$$$|$1$%$%$%$g#2$I#3$4$5$0+0+0+0+0+0+0+0+0+0+0+0+0+0+0+0+6$7$8$9$0$a$b$c$d$x#^$F#@$K@e$v@($f$              ",
"            g$h$[$|$$$$$1$1$1$1$I#i$j$}$*$k$l$0+0+0+0+0+0+0+0+0+0+0+0+0+0+0+m$n$o$p$q$r$s$Y#t$u$v$]#@$I#K@w$x$e$y$z$            ",
"            A$B$C$]#|$|$|$1$1$I#}$i$i$i$@$D$E$F$0+0+0+0+0+0+0+0+0+0+0+0+G$H$@ @ I$J$K$0$s$t$`@t$Y#@$I##$K@K@K@w@`@L$            ",
"            M$N$1$@$e#O$P$@$I#%$g#Q$2$J@R$S$T$U$V$0+0+0+0+0+0+0+0+0+W$X$Y$@ @ @ Z$`$K$ %.%Y@K@h##$}$}$g#K@K@y#+%@%              ",
"          #%$%%%]$W#&%*%=%/$I#%$Q$x$-%i$G#;%>%,%'%)%!%~%{%]%^%/%(%_%:%@ @ @ @ @ <%[%K$}%|%Y@y#%$[$[$1%2%-%3%4%5%                ",
"          6%7%8%9%0%o#a%b%c%d%e%`@`@%$%$@$G#f%g%h%i%@ @ @ @ @ @ @ @ @ @ @ @ @ j%k%l%q$}%m%|$I#n%o%c#p%q%r%s%                    ",
"            t%u%v%w%x%y%z%A%B%6#C%W#e#D%E%F%G%H%I%J%@ @ @ @ @ @ @ @ @ @ @ @ @ K%L%M%N%O%P%Q%R%!$S%T%U%V%                        ",
"                W%X%Y%Z%`% &.&+&@&#&$&$&%&&&*&=&-&;&@ @ @ @ @ @ @ @ @ @ @ @ @ K%>&,&'&)&!&~&{&]&^&/&                            ",
"                        (&_&:&<&[&}&|&1&2&3&4&5&6&7&&                         8&9&0&a&b&c&d&e&f&g&                              ",
"                                h&i&j&k&l&m&n&o&p&                              q&r&s&t&u&v&w&x&                                ",
"                                    y&z&A&B&C&                                    D&E&F&G&H&I&                                  ",
"                                                                                                                                "};
